<svg width="512" height="509" viewBox="0 0 512 509" version="1.1" xmlns="http://www.w3.org/2000/svg" xmlns:xlink="http://www.w3.org/1999/xlink">
<title>002-line-graph</title>
<desc>Created using Figma</desc>
<g id="Canvas" transform="translate(-2227 -481)">
<g id="002-line-graph">
<g id="Group">
<g id="Group">
<g id="Vector">
<use xlink:href="#path0_fill" transform="translate(2227 481)" fill="#007BFF"/>
</g>
</g>
</g>
<g id="Group">
<g id="Group">
<g id="Vector">
<use xlink:href="#path1_fill" transform="translate(2690.05 748.525)" fill="#007BFF"/>
</g>
</g>
</g>
</g>
</g>
<defs>
<path id="path0_fill" d="M 501.801 464.29L 61.144 464.29L 116.752 402.417C 121.635 405.006 127.198 406.479 133.1 406.479C 146.686 406.479 158.482 398.698 164.288 387.364L 221.106 401.711C 222.609 419.649 237.68 433.789 256.001 433.789C 275.315 433.789 291.028 418.076 291.028 398.762C 291.028 388.111 286.244 378.561 278.718 372.132L 325.053 261.391L 358.05 345.534C 350.163 351.963 345.114 361.747 345.114 372.691C 345.114 392.005 360.828 407.718 380.142 407.718C 399.456 407.718 415.169 392.005 415.169 372.691C 415.169 368.745 414.503 364.953 413.294 361.411L 453.768 320.935C 457.751 316.952 457.751 310.494 453.768 306.51C 449.785 302.528 443.327 302.528 439.344 306.51L 401.162 344.692C 395.303 340.281 388.021 337.663 380.139 337.663C 379.057 337.663 377.988 337.719 376.93 337.816L 336.359 234.359L 377.116 136.95C 378.113 137.036 379.119 137.089 380.138 137.089C 396.357 137.089 410.031 126.008 413.999 111.019L 478.209 111.019C 483.842 111.019 488.408 106.452 488.408 100.82C 488.408 95.188 483.842 90.621 478.209 90.621L 413.238 90.621C 408.485 76.909 395.448 67.033 380.139 67.033C 360.825 67.033 345.111 82.746 345.111 102.061C 345.111 113.072 350.223 122.906 358.192 129.333L 325.662 207.079L 278.142 85.902C 285.282 79.485 289.783 70.185 289.783 59.851C 289.783 40.536 274.069 24.823 254.755 24.823C 235.441 24.823 219.73 40.536 219.73 59.851C 219.73 68.207 222.676 75.887 227.577 81.914L 143.497 209.308C 139.853 208.02 135.936 207.312 131.857 207.312C 127.672 207.312 123.658 208.052 119.935 209.404L 47.709 114.369L 47.709 10.199C 47.709 4.567 43.143 3.5286e-08 37.51 3.5286e-08C 31.877 3.5286e-08 27.31 4.567 27.31 10.199L 27.31 110.486L 10.199 110.486C 4.566 110.485 0 115.053 0 120.685C 0 126.317 4.566 130.884 10.199 130.884L 27.311 130.884L 27.311 233.386L 10.199 233.386C 4.566 233.386 0 237.953 0 243.585C 0 249.217 4.566 253.784 10.199 253.784L 27.311 253.784L 27.311 358.77L 10.199 358.77C 4.566 358.77 0 363.337 0 368.969C 0 374.601 4.566 379.168 10.199 379.168L 27.311 379.168L 27.311 474.489C 27.311 480.121 31.877 484.688 37.51 484.688L 125.383 484.688L 125.383 498.075C 125.383 503.707 129.949 508.274 135.582 508.274C 141.215 508.274 145.781 503.707 145.781 498.075L 145.781 484.688L 248.283 484.688L 248.283 498.075C 248.283 503.707 252.849 508.274 258.482 508.274C 264.115 508.274 268.681 503.707 268.681 498.075L 268.681 484.688L 373.665 484.688L 373.665 498.075C 373.665 503.707 378.231 508.274 383.864 508.274C 389.497 508.274 394.063 503.707 394.063 498.075L 394.063 484.688L 501.798 484.688C 507.431 484.688 511.997 480.121 511.997 474.489C 511.997 468.857 507.434 464.29 501.801 464.29ZM 380.143 358.063C 388.208 358.063 394.772 364.626 394.772 372.693C 394.772 380.758 388.209 387.322 380.143 387.322C 372.076 387.322 365.513 380.759 365.513 372.693C 365.513 364.626 372.076 358.063 380.143 358.063ZM 380.142 87.434C 388.209 87.434 394.771 93.997 394.771 102.064C 394.771 110.131 388.208 116.694 380.142 116.694C 372.075 116.694 365.512 110.131 365.512 102.064C 365.512 93.997 372.075 87.434 380.142 87.434ZM 133.1 386.08C 125.033 386.08 118.471 379.517 118.471 371.45C 118.471 363.384 125.034 356.821 133.1 356.821C 141.166 356.821 147.729 363.384 147.729 371.45C 147.728 379.518 141.166 386.08 133.1 386.08ZM 256 413.391C 247.933 413.391 241.371 406.828 241.371 398.762C 241.371 390.695 247.934 384.132 256 384.132C 264.066 384.132 270.629 390.695 270.629 398.762C 270.629 406.828 264.067 413.391 256 413.391ZM 254.759 45.226C 262.826 45.226 269.389 51.789 269.389 59.856C 269.389 67.923 262.826 74.486 254.759 74.486C 246.692 74.486 240.13 67.923 240.13 59.856C 240.13 51.789 246.692 45.226 254.759 45.226ZM 131.857 227.715C 139.925 227.715 146.487 234.277 146.487 242.344C 146.487 250.411 139.924 256.974 131.857 256.974C 123.79 256.974 117.228 250.411 117.228 242.344C 117.229 234.278 123.792 227.715 131.857 227.715ZM 47.71 148.085L 103.62 221.651C 99.357 227.453 96.831 234.608 96.831 242.343C 96.831 261.658 112.544 277.371 131.858 277.371C 151.172 277.371 166.886 261.658 166.886 242.343C 166.886 234.511 164.302 227.272 159.941 221.432L 244.48 93.342C 247.732 94.342 251.183 94.883 254.758 94.883C 256.408 94.883 258.03 94.76 259.62 94.538L 314.355 234.112L 260.019 363.972C 258.699 363.821 257.359 363.734 255.999 363.734C 242.854 363.734 231.382 371.016 225.392 381.755L 167.862 367.227C 165.769 349.899 150.982 336.422 133.098 336.422C 113.784 336.422 98.071 352.135 98.071 371.449C 98.071 377.444 99.587 383.091 102.253 388.03L 47.71 448.72L 47.71 148.085Z"/>
<path id="path1_fill" d="M 25.4812 2.98725C 21.4982 -0.99575 15.0403 -0.99575 11.0573 2.98725L 2.98725 11.0573C -0.995746 15.0413 -0.995746 21.4982 2.98725 25.4822C 4.97925 27.4732 7.58926 28.4692 10.1993 28.4692C 12.8093 28.4692 15.4203 27.4732 17.4113 25.4822L 25.4812 17.4122C 29.4632 13.4282 29.4632 6.97125 25.4812 2.98725Z"/>
</defs>
</svg>
