<svg width="508" height="508" viewBox="0 0 508 508" version="1.1" xmlns="http://www.w3.org/2000/svg" xmlns:xlink="http://www.w3.org/1999/xlink">
<title>003-share</title>
<desc>Created using Figma</desc>
<g id="Canvas" transform="translate(-2936 -481)">
<g id="003-share">
<g id="Group">
<g id="Vector">
<use xlink:href="#path0_fill" transform="translate(3295.86 565.943)" fill="#007BFF"/>
</g>
<g id="Vector">
<use xlink:href="#path1_fill" transform="translate(2936 805.069)" fill="#007BFF"/>
</g>
<g id="Vector">
<use xlink:href="#path2_fill" transform="translate(2962.89 481)" fill="#007BFF"/>
</g>
</g>
</g>
</g>
<defs>
<path id="path0_fill" d="M 115.901 246.475C 119.781 229.649 121.866 212.5 121.866 195.333C 121.866 115.673 81.3045 43.1344 13.3551 1.30326C 9.2123 -1.23674 3.83451 0.0507748 1.30327 4.16733C -1.23674 8.29264 0.050779 13.6792 4.16733 16.2192C 66.8966 54.8447 104.348 121.796 104.348 195.333C 104.348 210.45 102.597 225.559 99.3298 240.414C 95.292 239.573 91.1142 239.126 86.8312 239.126C 53.0229 239.126 25.5209 266.637 25.5209 300.436C 25.5209 334.236 53.0229 361.747 86.8312 361.747C 120.64 361.747 148.142 334.236 148.142 300.436C 148.142 277.147 135.082 256.854 115.901 246.475ZM 86.8312 344.23C 62.6837 344.23 43.0381 324.584 43.0381 300.436C 43.0381 276.289 62.6837 256.643 86.8312 256.643C 110.979 256.643 130.624 276.289 130.624 300.436C 130.624 324.584 110.979 344.23 86.8312 344.23Z"/>
<path id="path1_fill" d="M 334.325 150.491C 308.794 161.054 281.774 166.414 254 166.414C 198.076 166.414 144.281 143.86 104.955 104.298C 115.868 93.218 122.621 78.0481 122.621 61.3103C 122.621 27.5108 95.1186 0 61.3104 0C 27.5021 0 0 27.5108 0 61.3103C 0 95.1099 27.5021 122.621 61.3104 122.621C 72.0484 122.621 82.1384 119.827 90.9233 114.957C 133.657 158.846 192.637 183.931 254 183.931C 284.086 183.931 313.366 178.124 341.026 166.668C 345.493 164.82 347.621 159.696 345.773 155.22C 343.925 150.762 338.792 148.643 334.325 150.491ZM 17.5172 61.3103C 17.5172 37.1628 37.1628 17.5172 61.3104 17.5172C 85.4579 17.5172 105.103 37.1628 105.103 61.3103C 105.103 85.4579 85.4579 105.103 61.3104 105.103C 37.1628 105.103 17.5172 85.4579 17.5172 61.3103Z"/>
<path id="path2_fill" d="M 8.14148 273.383C 8.35168 273.4 8.56189 273.409 8.76334 273.409C 13.3266 273.409 17.1629 269.888 17.4957 265.264C 23.7318 176.898 83.9386 103.054 168.319 78.5824C 175.799 104 199.298 122.621 227.107 122.621C 260.915 122.621 288.417 95.1099 288.417 61.3103C 288.417 27.5108 260.915 0 227.107 0C 193.378 0 165.928 27.3882 165.805 61.0914C 73.1305 86.903 6.83644 167.465 0.0222329 264.037C -0.319353 268.855 3.31548 273.05 8.14148 273.383ZM 227.107 17.5172C 251.255 17.5172 270.9 37.1628 270.9 61.3103C 270.9 85.4579 251.255 105.103 227.107 105.103C 202.96 105.103 183.314 85.4579 183.314 61.3103C 183.314 37.1628 202.96 17.5172 227.107 17.5172Z"/>
</defs>
</svg>
